# xmcd
#
# Track frame offsets: 
#        150
#        12480
#        25932
#        41617
#        56257
#        70115
#        84825
#        97655
#        111730
#        126437
#        138540
#        152312
#        165610
#        179207
#        192560
#        206867
#        220440
#        233947
#        246610
#        259852
#        272402
#        286752
#        298120
#        309930
#
# Disc length: 4312 seconds
#
# Revision: 0
# Processed by: cddbd v1.5.2PL0 Copyright (c) Steve Scherf et al.
# Submitted via: ExactAudioCopy v0.95a3
#
DISCID=6b10d618
DTITLE=Frankie "Half-Pint" Jaxon - Vol. 2: 1929-1937
DYEAR=1900
DGENRE=Blues
TTITLE0=I Want Two Wings to Veil My Face
TTITLE1=Give Me That Old Time Religion
TTITLE2=Christ Was Born on Christmas Morn
TTITLE3=Take It Easy
TTITLE4=You Got to Wet It
TTITLE5=Down Home in Kentucky
TTITLE6=Scuddlin'
TTITLE7=Chocolate to the Bone (I'm So Glad I'm Brownskin)
TTITLE8=Mama Don't Allow It
TTITLE9=Spank It
TTITLE10=The Mortgage Blues, Pt. 1
TTITLE11=The Mortgage Blues, Pt. 2
TTITLE12=Mama Don't Allow It
TTITLE13=My Baby's Hot (Can't You Understand)
TTITLE14=Fifteen Cents
TTITLE15=Fan It
TTITLE16=The Dirty Dozen
TTITLE17=She Brings Me Down
TTITLE18=Take It Easy Greasy
TTITLE19=You Got to Wet It
TTITLE20=No Need Knockin' on the Blind
TTITLE21=You Certainly Look Good to Me
TTITLE22=She Sends Me
TTITLE23=Chocolate to the Bone (I'm So Glad I'm Brownskin)
EXTD=
EXTT0=
EXTT1=
EXTT2=
EXTT3=
EXTT4=
EXTT5=
EXTT6=
EXTT7=
EXTT8=
EXTT9=
EXTT10=
EXTT11=
EXTT12=
EXTT13=
EXTT14=
EXTT15=
EXTT16=
EXTT17=
EXTT18=
EXTT19=
EXTT20=
EXTT21=
EXTT22=
EXTT23=
PLAYORDER=
